<svg width="1254" height="479" viewBox="0 0 1254 479" fill="none" xmlns="http://www.w3.org/2000/svg">
<rect x="24" width="1230" height="478" fill="#D8E7EB"/>
<path d="M51.5147 82.9429V253.657H85.4763C99.4679 233.171 106.464 203.126 106.464 163.52C106.464 146.676 104.556 130.743 100.74 115.72C97.1784 100.697 92.8537 89.7714 87.7658 82.9429H51.5147ZM0 479V1H103.411C120.71 14.6572 134.32 35.5981 144.241 63.8229C154.417 92.0476 159.505 125.052 159.505 162.837C159.505 200.167 154.29 234.765 143.86 266.631C133.429 298.498 118.039 321.032 97.6872 334.234H51.5147V479H0Z" fill="#B5D0D6"/>
<path d="M308.113 1C325.921 26.9486 339.149 61.7743 347.799 105.477C356.448 149.18 360.773 194.249 360.773 240.683C360.773 286.662 356.575 330.365 348.18 371.791C339.785 413.218 326.43 448.954 308.113 479H229.506C211.189 448.954 197.834 413.218 189.439 371.791C181.044 330.365 176.846 286.662 176.846 240.683C176.846 194.249 181.171 149.18 189.82 105.477C198.47 61.7743 211.698 26.9486 229.506 1H308.113ZM255.072 399.789H282.547C288.907 386.587 294.249 365.19 298.574 335.6C303.153 305.554 305.442 273.915 305.442 240.683C305.442 207.45 303.28 176.267 298.955 147.131C294.631 117.541 289.288 96.1448 282.928 82.9429H255.072C248.712 96.1448 243.243 117.541 238.664 147.131C234.339 176.267 232.177 207.45 232.177 240.683C232.177 273.915 234.339 305.554 238.664 335.6C243.243 365.19 248.712 386.587 255.072 399.789Z" fill="#B5D0D6"/>
<path d="M390.534 1H492.037C508.064 10.56 521.674 28.3143 532.867 54.2629C544.315 79.7562 550.039 111.168 550.039 148.497C550.039 209.499 536.556 254.34 509.59 283.02L548.131 479H494.708L462.273 304.871H442.049V479H390.534V1ZM442.049 82.9429V228.391H474.865C479.19 226.57 483.896 218.831 488.984 205.174C494.327 191.062 496.998 174.673 496.998 156.009C496.998 137.344 494.708 120.955 490.129 106.843C485.804 92.7305 481.48 84.7638 477.155 82.9429H442.049Z" fill="#B5D0D6"/>
<path d="M602.024 1H693.606V82.9429H620.341L619.196 87.04L680.25 286.434C692.716 326.495 698.948 356.996 698.948 377.937C698.948 423.916 690.426 457.604 673.382 479H572.26V399.789H651.25L652.394 395.691L583.708 175.129C573.787 143.262 568.826 117.313 568.826 97.2829C568.826 49.9381 579.892 17.8438 602.024 1Z" fill="#B5D0D6"/>
<path d="M793.982 399.789H861.142V479H764.218C747.428 450.775 734.709 415.039 726.059 371.791C717.41 328.544 713.085 284.158 713.085 238.634C713.085 192.655 717.919 148.497 727.586 106.16C737.253 63.8229 751.626 28.7695 770.705 1H861.142V82.9429H793.982C787.114 97.0552 781.135 119.817 776.048 151.229C771.214 182.64 768.797 212.686 768.797 241.366C768.797 270.046 771.214 300.091 776.048 331.503C781.135 362.914 787.114 385.676 793.982 399.789Z" fill="#B5D0D6"/>
<path d="M941.413 479H889.135V1H941.413V193.566H1002.47V1H1054.75V479H1002.47V280.971H941.413V479Z" fill="#B5D0D6"/>
<path d="M1091.48 479V1H1228.47V82.9429H1143.76V196.98H1219.32V276.191H1143.76V399.789H1230V479H1091.48Z" fill="#B5D0D6"/>
</svg>
