<svg width="20" height="22" viewBox="0 0 20 22" fill="none" xmlns="http://www.w3.org/2000/svg">
<g clip-path="url(#clip0_16_49)">
<path d="M18.5714 6.875H15.3571V5.15625C15.3571 2.31301 12.9554 0 10 0C7.04464 0 4.64286 2.31301 4.64286 5.15625V6.875H1.42857C0.639732 6.875 0 7.48945 0 8.25V18.5625C0 20.4617 1.59911 22 3.57143 22H16.4286C18.4009 22 20 20.4609 20 18.5625V8.25C20 7.48945 19.3616 6.875 18.5714 6.875ZM6.78571 5.15625C6.78571 3.45039 8.22768 2.0625 10 2.0625C11.7723 2.0625 13.2143 3.45039 13.2143 5.15625V6.875H6.78571V5.15625ZM5.71429 10.6562C5.125 10.6562 4.64286 10.1965 4.64286 9.625C4.64286 9.05352 5.125 8.59375 5.71429 8.59375C6.30357 8.59375 6.78571 9.05781 6.78571 9.625C6.78571 10.1922 6.30804 10.6562 5.71429 10.6562ZM14.2857 10.6562C13.6942 10.6562 13.2143 10.1943 13.2143 9.625C13.2143 9.05566 13.6964 8.59375 14.2857 8.59375C14.875 8.59375 15.3571 9.05781 15.3571 9.625C15.3571 10.1922 14.8795 10.6562 14.2857 10.6562Z" fill="white"/>
</g>
<defs>
<clipPath id="clip0_16_49">
<rect width="20" height="22" fill="white"/>
</clipPath>
</defs>
</svg>
