<svg width="34" height="33" viewBox="0 0 34 33" fill="none" xmlns="http://www.w3.org/2000/svg">
<path d="M17.1435 25.4506L7.49058 19.2304C7.26788 19.0866 7.11137 18.8603 7.05545 18.6012C6.99953 18.3421 7.04876 18.0714 7.19234 17.8486C7.33592 17.6258 7.56209 17.4691 7.82114 17.4129C8.0802 17.3568 8.35095 17.4058 8.57389 17.5492L16.0957 22.3953L15.8752 8.26218C15.8711 7.99699 15.9725 7.74103 16.1571 7.55059C16.3416 7.36015 16.5943 7.25084 16.8595 7.2467C17.1247 7.24256 17.3807 7.34394 17.5711 7.52853C17.7615 7.71312 17.8708 7.9658 17.875 8.23098L18.0954 22.3641L25.4624 17.2857C25.6808 17.1381 25.9487 17.0827 26.2078 17.1315C26.4668 17.1803 26.6961 17.3295 26.8458 17.5466C26.9954 17.7636 27.0533 18.031 27.0068 18.2905C26.9604 18.55 26.8133 18.7806 26.5977 18.9322L17.1435 25.4506Z" fill="#231F20"/>
</svg>
